<svg width="1280" height="880" viewBox="0 0 1280 880" xmlns="http://www.w3.org/2000/svg" font-family="system-ui, sans-serif">
  <defs>
    <radialGradient id="voidGold" cx="50%" cy="42%" r="62%">
      <stop offset="0%" stop-color="#1a2030"/><stop offset="55%" stop-color="#10131c"/><stop offset="100%" stop-color="#070910"/>
    </radialGradient>
    <linearGradient id="bronze" x1="14" y1="6" x2="50" y2="58" gradientUnits="userSpaceOnUse">
      <stop offset="0%" stop-color="#f0d690"/><stop offset="48%" stop-color="#c9a24b"/><stop offset="100%" stop-color="#8a6d2e"/>
    </linearGradient>
    <linearGradient id="goldText" x1="0" y1="0" x2="0" y2="1">
      <stop offset="0%" stop-color="#f6e6b8"/><stop offset="55%" stop-color="#d8b25a"/><stop offset="100%" stop-color="#8a6d2e"/>
    </linearGradient>
    <linearGradient id="truthTop" x1="0" y1="0" x2="0" y2="1">
      <stop offset="0%" stop-color="#c9a24b" stop-opacity="0.10"/><stop offset="40%" stop-color="#141925" stop-opacity="0"/>
    </linearGradient>
    <radialGradient id="glowA" cx="12%" cy="0%" r="55%"><stop offset="0%" stop-color="#4fd1c5" stop-opacity="0.07"/><stop offset="100%" stop-color="#4fd1c5" stop-opacity="0"/></radialGradient>
    <radialGradient id="glowE" cx="100%" cy="100%" r="55%"><stop offset="0%" stop-color="#e8743b" stop-opacity="0.07"/><stop offset="100%" stop-color="#e8743b" stop-opacity="0"/></radialGradient>
    <g id="sigil">
      <path d="M21 5 H43 L59 21 V43 L43 59 H21 L5 43 V21 Z" fill="url(#voidGold)" stroke="url(#bronze)" stroke-width="2.5" stroke-linejoin="round"/>
      <rect x="19" y="37.5" width="26" height="2.4" rx="1.2" fill="url(#bronze)"/>
      <path d="M20 36 L32 16 L44 36" fill="none" stroke="url(#bronze)" stroke-width="3.4" stroke-linecap="round" stroke-linejoin="round"/>
      <circle cx="32" cy="44.5" r="3" fill="#4fd1c5"/>
      <circle cx="32" cy="44.5" r="6.2" fill="none" stroke="#4fd1c5" stroke-opacity="0.4" stroke-width="1"/>
    </g>
  </defs>

  <!-- page + atmosphere -->
  <rect width="1280" height="880" fill="#0a0e14"/>
  <rect width="1280" height="880" fill="url(#glowA)"/>
  <rect width="1280" height="880" fill="url(#glowE)"/>
  <g stroke="#c9a24b" stroke-opacity="0.03">
    <line x1="320" y1="0" x2="320" y2="880"/><line x1="560" y1="0" x2="560" y2="880"/><line x1="800" y1="0" x2="800" y2="880"/><line x1="1040" y1="0" x2="1040" y2="880"/>
    <line x1="232" y1="160" x2="1280" y2="160"/><line x1="232" y1="320" x2="1280" y2="320"/><line x1="232" y1="480" x2="1280" y2="480"/><line x1="232" y1="640" x2="1280" y2="640"/>
  </g>

  <!-- ============ SIDEBAR ============ -->
  <rect x="0" y="0" width="232" height="880" fill="#0c111b"/>
  <line x1="232" y1="0" x2="232" y2="880" stroke="#232c3d"/>
  <g transform="translate(20,18) scale(0.55)"><use href="#sigil"/></g>
  <text x="64" y="34" fill="#f5efe0" font-family="Georgia, 'Times New Roman', serif" font-size="15" font-weight="700" letter-spacing="1.5">FFT PSX VERA</text>
  <text x="64" y="50" fill="#c9a24b" font-family="monospace" font-size="8" letter-spacing="2.4">SAVE COMPANION</text>
  <line x1="16" y1="70" x2="216" y2="70" stroke="#c9a24b" stroke-opacity="0.14"/>

  <text x="22" y="98" fill="#687387" font-family="monospace" font-size="9" letter-spacing="2.2">ARCHIVE</text>
  <g font-family="system-ui, sans-serif" font-size="13.5" fill="#9aa3b4">
    <g transform="translate(16,108)"><rect width="200" height="30" rx="8" fill="#0c111b"/><rect x="12" y="9" width="13" height="13" rx="2" fill="none" stroke="#687387"/><text x="36" y="20">Home</text></g>
    <g transform="translate(16,142)"><rect x="12" y="8" width="14" height="11" rx="1.5" fill="none" stroke="#687387"/><text x="36" y="20">Campaigns</text></g>
  </g>
  <line x1="20" y1="186" x2="212" y2="186" stroke="#c9a24b" stroke-opacity="0.14"/>
  <text x="22" y="210" fill="#687387" font-family="monospace" font-size="9" letter-spacing="2.2">THIS SAVE</text>
  <g font-family="system-ui, sans-serif" font-size="13.5">
    <g transform="translate(16,220)"><rect width="200" height="30" rx="8" fill="#1b1606" fill-opacity="0.5" stroke="#c9a24b" stroke-opacity="0.35"/><circle cx="20" cy="15" r="6" fill="none" stroke="#d8b25a" stroke-width="1.4"/><text x="36" y="20" fill="#d8b25a" font-weight="600">Party Ledger</text></g>
    <g transform="translate(16,256)" fill="#9aa3b4"><path d="M14 9 h12 M14 14 h12 M14 19 h8" stroke="#687387" stroke-width="1.4" fill="none"/><text x="36" y="20">War Council</text></g>
    <g transform="translate(16,290)" fill="#9aa3b4"><path d="M13 19 L21 9 M27 19 L19 9" stroke="#687387" stroke-width="1.4"/><text x="36" y="20">Dream Team</text></g>
  </g>

  <!-- ============ CONTENT ============ -->
  <text x="264" y="58" fill="#687387" font-family="monospace" font-size="11" letter-spacing="1.5">HOME / CAMPAIGNS / CAPTAIN VEREL'S COMPANY</text>
  <text x="264" y="92" fill="#f5efe0" font-family="Georgia, 'Times New Roman', serif" font-size="30" font-weight="700" letter-spacing="1">Captain Verel's Company</text>
  <text x="264" y="116" fill="#c9a24b" font-family="monospace" font-size="12" letter-spacing="1.5">CHAPTER II  ·  MOONLIT SLATE</text>

  <!-- quick actions -->
  <g font-family="Georgia, serif">
    <g transform="translate(264,140)"><rect width="316" height="68" rx="12" fill="#141925" stroke="#232c3d"/><rect width="3" height="68" rx="2" fill="#c9a24b" opacity="0.8"/><text x="20" y="30" fill="#f5efe0" font-size="15" font-weight="700">⚑  War Council</text><text x="20" y="50" fill="#9aa3b4" font-family="system-ui" font-size="11.5">Convene multiple characters at the table</text></g>
    <g transform="translate(598,140)"><rect width="316" height="68" rx="12" fill="#141925" stroke="#232c3d"/><rect width="3" height="68" rx="2" fill="#4fd1c5" opacity="0.8"/><text x="20" y="30" fill="#f5efe0" font-size="15" font-weight="700">▢  Current Inventory</text><text x="20" y="50" fill="#9aa3b4" font-family="system-ui" font-size="11.5">Parser-verified gear and items</text></g>
    <g transform="translate(932,140)"><rect width="316" height="68" rx="12" fill="#141925" stroke="#232c3d"/><rect width="3" height="68" rx="2" fill="#e8743b" opacity="0.85"/><text x="20" y="30" fill="#f5efe0" font-size="15" font-weight="700">♦  Campfire</text><text x="20" y="50" fill="#9aa3b4" font-family="system-ui" font-size="11.5">Discuss the latest save memory</text></g>
  </g>

  <!-- ===== SAVE TRUTH AUDIT (sealed ledger) ===== -->
  <g transform="translate(264,228)">
    <rect width="984" height="392" rx="12" fill="#141925" stroke="#c9a24b" stroke-opacity="0.35"/>
    <rect width="984" height="392" rx="12" fill="url(#truthTop)"/>
    <rect width="3" height="392" rx="2" fill="#c9a24b" opacity="0.55"/>
    <text x="24" y="34" fill="#c9a24b" font-family="monospace" font-size="11" letter-spacing="2.5">— SAVE TRUTH AUDIT</text>
    <text x="24" y="62" fill="#f5efe0" font-family="Georgia, serif" font-size="20" font-weight="700">What the party actually knows from this save</text>
    <text x="24" y="84" fill="#9aa3b4" font-size="12.5">These are the hard facts the parser pins before any character voice — the model answers from this, not around it.</text>
    <!-- truth seal -->
    <g transform="translate(24,100)">
      <rect width="232" height="26" rx="13" fill="#4fd1c5" fill-opacity="0.08" stroke="#4fd1c5" stroke-opacity="0.4"/>
      <circle cx="16" cy="13" r="3.5" fill="#4fd1c5"/>
      <text x="30" y="17" fill="#4fd1c5" font-family="monospace" font-size="10.5" letter-spacing="1.5">PARSER-VERIFIED SAVE TRUTH</text>
    </g>
    <!-- score -->
    <g transform="translate(820,18)"><rect width="140" height="70" rx="8" fill="#070a10" fill-opacity="0.6" stroke="#c9a24b" stroke-opacity="0.35"/><text x="70" y="44" fill="#d8b25a" font-family="monospace" font-size="32" font-weight="700" text-anchor="middle">3</text><text x="70" y="60" fill="#687387" font-size="10" text-anchor="middle">with confirmed gear</text></g>
    <!-- stat grid -->
    <g transform="translate(24,144)" font-family="monospace">
      <g><rect width="176" height="58" rx="8" fill="#070a10" fill-opacity="0.5" stroke="#232c3d"/><text x="14" y="24" fill="#687387" font-size="9.5" letter-spacing="1.5">SCHEMA</text><text x="14" y="44" fill="#e9e2d2" font-size="15">v3.0</text></g>
      <g transform="translate(186,0)"><rect width="176" height="58" rx="8" fill="#070a10" fill-opacity="0.5" stroke="#232c3d"/><text x="14" y="24" fill="#687387" font-size="9.5" letter-spacing="1.5">VALIDATION</text><text x="14" y="44" fill="#57c98a" font-size="15">VALID</text></g>
      <g transform="translate(372,0)"><rect width="176" height="58" rx="8" fill="#070a10" fill-opacity="0.5" stroke="#232c3d"/><text x="14" y="24" fill="#687387" font-size="9.5" letter-spacing="1.5">CHARACTERS</text><text x="14" y="44" fill="#e9e2d2" font-size="15">5</text></g>
      <g transform="translate(558,0)"><rect width="176" height="58" rx="8" fill="#070a10" fill-opacity="0.5" stroke="#232c3d"/><text x="14" y="24" fill="#687387" font-size="9.5" letter-spacing="1.5">INVENTORY</text><text x="14" y="44" fill="#e9e2d2" font-size="15">42</text></g>
      <g transform="translate(744,0)"><rect width="192" height="58" rx="8" fill="#070a10" fill-opacity="0.5" stroke="#232c3d"/><text x="14" y="24" fill="#687387" font-size="9.5" letter-spacing="1.5">GIL</text><text x="14" y="44" fill="#e9e2d2" font-size="15">18,400</text></g>
    </g>
    <!-- character equipment card -->
    <g transform="translate(24,220)">
      <rect width="460" height="150" rx="8" fill="#0f131d" stroke="#232c3d"/>
      <text x="18" y="30" fill="#f5efe0" font-family="Georgia, serif" font-size="15" font-weight="700">Sera Wynn</text>
      <text x="442" y="30" fill="#c9a24b" font-family="monospace" font-size="11" text-anchor="end">Lv.34 Warden</text>
      <g font-size="12.5">
        <line x1="18" y1="44" x2="442" y2="44" stroke="#c9a24b" stroke-opacity="0.14"/>
        <text x="18" y="64" fill="#687387" font-family="monospace" font-size="11">right hand</text><text x="442" y="64" fill="#e9e2d2" text-anchor="end" font-weight="600">Bronze Saber</text>
        <line x1="18" y1="76" x2="442" y2="76" stroke="#c9a24b" stroke-opacity="0.14"/>
        <text x="18" y="96" fill="#687387" font-family="monospace" font-size="11">head</text><text x="442" y="96" fill="#e9e2d2" text-anchor="end" font-weight="600">Iron Circlet</text>
        <line x1="18" y1="108" x2="442" y2="108" stroke="#c9a24b" stroke-opacity="0.14"/>
        <text x="18" y="128" fill="#687387" font-family="monospace" font-size="11">body</text><text x="442" y="128" fill="#e9e2d2" text-anchor="end" font-weight="600">Wardens' Mail</text>
      </g>
    </g>
    <g transform="translate(500,220)">
      <rect width="460" height="150" rx="8" fill="#0f131d" stroke="#232c3d"/>
      <text x="18" y="30" fill="#f5efe0" font-family="Georgia, serif" font-size="15" font-weight="700">Aldric Vane</text>
      <text x="442" y="30" fill="#c9a24b" font-family="monospace" font-size="11" text-anchor="end">Lv.31 Vanguard</text>
      <g font-size="12.5">
        <line x1="18" y1="44" x2="442" y2="44" stroke="#c9a24b" stroke-opacity="0.14"/>
        <text x="18" y="64" fill="#687387" font-family="monospace" font-size="11">right hand</text><text x="442" y="64" fill="#e9e2d2" text-anchor="end" font-weight="600">Oak Greatshield</text>
        <line x1="18" y1="76" x2="442" y2="76" stroke="#c9a24b" stroke-opacity="0.14"/>
        <text x="18" y="96" fill="#687387" font-family="monospace" font-size="11">head</text><text x="442" y="96" fill="#e9e2d2" text-anchor="end" font-weight="600">Plumed Helm</text>
        <line x1="18" y1="108" x2="442" y2="108" stroke="#c9a24b" stroke-opacity="0.14"/>
        <text x="18" y="128" fill="#687387" font-family="monospace" font-size="11">accessory</text><text x="442" y="128" fill="#e9e2d2" text-anchor="end" font-weight="600">Oath Charm</text>
      </g>
    </g>
  </g>

  <!-- ===== PARTY ROSTER ===== -->
  <g transform="translate(264,648)">
    <text x="0" y="20" fill="#f5efe0" font-family="Georgia, serif" font-size="19" font-weight="700">Party Roster</text>
    <g transform="translate(150,4)"><rect width="118" height="22" rx="11" fill="#c9a24b" fill-opacity="0.12" stroke="#c9a24b" stroke-opacity="0.4"/><text x="59" y="15" fill="#d8b25a" font-family="monospace" font-size="10" text-anchor="middle">5 ON THE ROLLS</text></g>
    <g transform="translate(0,40)" font-family="Georgia, serif">
      <g><rect width="316" height="78" rx="12" fill="#141925" stroke="#232c3d"/><circle cx="40" cy="39" r="24" fill="#1a2233" stroke="#c9a24b" stroke-opacity="0.35"/><text x="40" y="46" fill="#d8b25a" font-size="18" text-anchor="middle">S</text><text x="78" y="34" fill="#f5efe0" font-size="15" font-weight="700">Sera Wynn</text><text x="78" y="52" fill="#687387" font-family="system-ui" font-size="11">Warden</text><g transform="translate(78,58)"><rect width="56" height="17" rx="8.5" fill="#c9a24b" fill-opacity="0.12" stroke="#c9a24b" stroke-opacity="0.4"/><text x="28" y="12" fill="#d8b25a" font-family="monospace" font-size="9" text-anchor="middle">Lv.34</text></g><text x="296" y="44" fill="#687387" font-size="16">›</text></g>
      <g transform="translate(334,0)"><rect width="316" height="78" rx="12" fill="#141925" stroke="#232c3d"/><circle cx="40" cy="39" r="24" fill="#1a2233" stroke="#c9a24b" stroke-opacity="0.35"/><text x="40" y="46" fill="#d8b25a" font-size="18" text-anchor="middle">A</text><text x="78" y="34" fill="#f5efe0" font-size="15" font-weight="700">Aldric Vane</text><text x="78" y="52" fill="#687387" font-family="system-ui" font-size="11">Vanguard</text><g transform="translate(78,58)"><rect width="56" height="17" rx="8.5" fill="#c9a24b" fill-opacity="0.12" stroke="#c9a24b" stroke-opacity="0.4"/><text x="28" y="12" fill="#d8b25a" font-family="monospace" font-size="9" text-anchor="middle">Lv.31</text></g><text x="296" y="44" fill="#687387" font-size="16">›</text></g>
      <g transform="translate(668,0)"><rect width="316" height="78" rx="12" fill="#141925" stroke="#232c3d"/><circle cx="40" cy="39" r="24" fill="#1a2233" stroke="#c9a24b" stroke-opacity="0.35"/><text x="40" y="46" fill="#d8b25a" font-size="18" text-anchor="middle">M</text><text x="78" y="34" fill="#f5efe0" font-size="15" font-weight="700">Mira Solenne</text><text x="78" y="52" fill="#687387" font-family="system-ui" font-size="11">Lancer</text><g transform="translate(78,58)"><rect width="56" height="17" rx="8.5" fill="#c9a24b" fill-opacity="0.12" stroke="#c9a24b" stroke-opacity="0.4"/><text x="28" y="12" fill="#d8b25a" font-family="monospace" font-size="9" text-anchor="middle">Lv.29</text></g><text x="296" y="44" fill="#687387" font-size="16">›</text></g>
    </g>
  </g>
</svg>
